<?xml version="1.0" encoding="UTF-8"?>
<!DOCTYPE svg PUBLIC "-//W3C//DTD SVG 1.1//EN" "http://www.w3.org/Graphics/SVG/1.1/DTD/svg11.dtd">
<svg xmlns="http://www.w3.org/2000/svg" version="1.1" width="369px" height="346px" style="shape-rendering:geometricPrecision; text-rendering:geometricPrecision; image-rendering:optimizeQuality; fill-rule:evenodd; clip-rule:evenodd" xmlns:xlink="http://www.w3.org/1999/xlink">
<g><path style="opacity:1" fill="#ffdcc4" d="M 150.5,-0.5 C 151.833,-0.5 153.167,-0.5 154.5,-0.5C 154.982,0.416349 155.315,1.41635 155.5,2.5C 153.583,13.7482 152.417,25.0816 152,36.5C 151.582,40.222 149.749,41.222 146.5,39.5C 147.499,26.3411 141.499,19.1744 128.5,18C 118.33,17.5756 108.163,17.0756 98,16.5C 94.9136,16.522 91.9136,16.8553 89,17.5C 88.5,40.831 88.3334,64.1643 88.5,87.5C 103.837,87.6666 119.17,87.4999 134.5,87C 139.828,86.5027 144.162,84.1694 147.5,80C 149.391,79.6913 150.725,80.5247 151.5,82.5C 149.328,96.4019 147.995,110.402 147.5,124.5C 145.833,124.5 144.167,124.5 142.5,124.5C 142.237,118.939 141.07,113.606 139,108.5C 137.269,106.383 135.102,104.883 132.5,104C 117.884,102.587 103.217,102.087 88.5,102.5C 88.3334,126.169 88.5,149.836 89,173.5C 89.5046,175.518 90.0046,177.518 90.5,179.5C 90.427,181.027 91.0937,182.027 92.5,182.5C 97.1038,185.071 102.104,186.571 107.5,187C 117.873,187.804 128.207,187.471 138.5,186C 149.986,182.579 155.819,174.745 156,162.5C 157.396,160.473 159.062,160.14 161,161.5C 161.491,172.421 160.657,183.255 158.5,194C 158.079,197.52 156.413,200.187 153.5,202C 145.167,202.167 136.833,202.333 128.5,202.5C 97.1695,201.575 65.8361,201.408 34.5,202C 10.3291,228.524 4.49577,258.69 17,292.5C 28.8556,317.53 48.6889,331.364 76.5,334C 89.8844,335.326 102.884,333.659 115.5,329C 86.5596,312.515 78.0596,288.682 90,257.5C 100.961,241.777 115.794,236.277 134.5,241C 151.861,247.876 160.861,260.71 161.5,279.5C 160.862,292.94 156.195,304.774 147.5,315C 157.407,314.046 165.741,309.88 172.5,302.5C 173.906,302.027 174.573,301.027 174.5,299.5C 178.162,292.675 180.328,285.342 181,277.5C 181.667,229.5 181.667,181.5 181,133.5C 181.753,124.143 177.587,118.643 168.5,117C 164.5,116.667 160.5,116.333 156.5,116C 154.606,114.921 154.273,113.587 155.5,112C 170.41,110.848 185.41,110.348 200.5,110.5C 218.191,110.411 235.858,110.911 253.5,112C 281.994,115.191 297.327,131.024 299.5,159.5C 298.945,174.672 293.778,188.005 284,199.5C 277.986,205.682 271.819,211.682 265.5,217.5C 270.191,223.852 274.858,230.185 279.5,236.5C 279.427,238.027 280.094,239.027 281.5,239.5C 282.5,239.833 283.167,240.5 283.5,241.5C 283.427,243.027 284.094,244.027 285.5,244.5C 286.5,244.833 287.167,245.5 287.5,246.5C 287.427,248.027 288.094,249.027 289.5,249.5C 290.5,249.833 291.167,250.5 291.5,251.5C 291.427,253.027 292.094,254.027 293.5,254.5C 296.295,256.751 298.628,259.418 300.5,262.5C 300.427,264.027 301.094,265.027 302.5,265.5C 303.833,266.167 304.833,267.167 305.5,268.5C 305.427,270.027 306.094,271.027 307.5,271.5C 316.711,282.211 327.044,291.711 338.5,300C 345.749,303.537 353.416,305.37 361.5,305.5C 361.714,307.144 361.38,308.644 360.5,310C 345.5,310.667 330.5,310.667 315.5,310C 309.457,309.271 304.123,307.104 299.5,303.5C 299.027,302.094 298.027,301.427 296.5,301.5C 295.5,301.167 294.833,300.5 294.5,299.5C 294.027,298.094 293.027,297.427 291.5,297.5C 284.827,290.99 278.66,283.99 273,276.5C 262.221,260.721 251.054,245.221 239.5,230C 230.942,228.559 222.276,228.059 213.5,228.5C 213.836,247.194 213.336,265.861 212,284.5C 205.113,312.714 187.279,329.214 158.5,334C 147.553,336.107 136.72,335.607 126,332.5C 94.8663,345.969 64.6996,344.135 35.5,327C 11.1483,306.974 0.648275,281.141 4,249.5C 5.60413,235.175 10.4375,222.175 18.5,210.5C 19.9063,210.027 20.573,209.027 20.5,207.5C 28.66,195.084 39.3266,185.417 52.5,178.5C 53.3306,172.193 53.8306,165.859 54,159.5C 54.9264,112.484 54.593,65.4838 53,18.5C 52.6162,15.9398 51.7829,13.6064 50.5,11.5C 50.0269,10.0937 49.0269,9.42702 47.5,9.5C 41.2707,8.06306 34.9374,7.22973 28.5,7C 27.0091,4.97832 27.3424,3.31165 29.5,2C 66.1603,2.48047 102.827,2.48047 139.5,2C 143.43,1.75845 147.097,0.92512 150.5,-0.5 Z M 257.5,205.5 C 255.5,206.833 253.833,208.5 252.5,210.5C 242.402,215.704 231.736,216.87 220.5,214C 217.867,213.577 215.701,212.41 214,210.5C 213.333,182.5 213.333,154.5 214,126.5C 239.292,120.647 256.292,129.981 265,154.5C 269.611,172.624 267.111,189.624 257.5,205.5 Z M 144.5,307.5 C 143.094,307.973 142.427,308.973 142.5,310.5C 140.386,312.787 137.886,314.454 135,315.5C 107.274,310.126 94.2735,293.46 96,265.5C 100.47,253.21 109.304,246.877 122.5,246.5C 142.581,248.249 153.248,259.249 154.5,279.5C 153.739,289.785 150.406,299.118 144.5,307.5 Z"/></g>
<g><path style="opacity:0.627" fill="#ffece0" d="M 47.5,9.5 C 49.0269,9.42702 50.0269,10.0937 50.5,11.5C 48.9731,11.573 47.9731,10.9063 47.5,9.5 Z"/></g>
<g><path style="opacity:0.627" fill="#ffece0" d="M 90.5,179.5 C 91.9063,179.973 92.573,180.973 92.5,182.5C 91.0937,182.027 90.427,181.027 90.5,179.5 Z"/></g>
<g><path style="opacity:0.565" fill="#feede1" d="M 20.5,207.5 C 20.573,209.027 19.9063,210.027 18.5,210.5C 18.427,208.973 19.0937,207.973 20.5,207.5 Z"/></g>
<g><path style="opacity:0.816" fill="#feebdb" d="M 257.5,205.5 C 256.833,208.167 255.167,209.833 252.5,210.5C 253.833,208.5 255.5,206.833 257.5,205.5 Z"/></g>
<g><path style="opacity:0.816" fill="#feecdf" d="M 279.5,236.5 C 280.906,236.973 281.573,237.973 281.5,239.5C 280.094,239.027 279.427,238.027 279.5,236.5 Z"/></g>
<g><path style="opacity:0.816" fill="#feecdf" d="M 283.5,241.5 C 284.906,241.973 285.573,242.973 285.5,244.5C 284.094,244.027 283.427,243.027 283.5,241.5 Z"/></g>
<g><path style="opacity:0.816" fill="#feecdf" d="M 287.5,246.5 C 288.906,246.973 289.573,247.973 289.5,249.5C 288.094,249.027 287.427,248.027 287.5,246.5 Z"/></g>
<g><path style="opacity:0.816" fill="#feecdf" d="M 291.5,251.5 C 292.906,251.973 293.573,252.973 293.5,254.5C 292.094,254.027 291.427,253.027 291.5,251.5 Z"/></g>
<g><path style="opacity:0.816" fill="#feecdf" d="M 300.5,262.5 C 301.906,262.973 302.573,263.973 302.5,265.5C 301.094,265.027 300.427,264.027 300.5,262.5 Z"/></g>
<g><path style="opacity:0.816" fill="#feecdf" d="M 305.5,268.5 C 306.906,268.973 307.573,269.973 307.5,271.5C 306.094,271.027 305.427,270.027 305.5,268.5 Z"/></g>
<g><path style="opacity:0.816" fill="#feede0" d="M 291.5,297.5 C 293.027,297.427 294.027,298.094 294.5,299.5C 292.973,299.573 291.973,298.906 291.5,297.5 Z"/></g>
<g><path style="opacity:0.627" fill="#ffecdf" d="M 174.5,299.5 C 174.573,301.027 173.906,302.027 172.5,302.5C 172.427,300.973 173.094,299.973 174.5,299.5 Z"/></g>
<g><path style="opacity:0.565" fill="#feeee2" d="M 296.5,301.5 C 298.027,301.427 299.027,302.094 299.5,303.5C 297.973,303.573 296.973,302.906 296.5,301.5 Z"/></g>
<g><path style="opacity:0.816" fill="#feecdf" d="M 144.5,307.5 C 144.573,309.027 143.906,310.027 142.5,310.5C 142.427,308.973 143.094,307.973 144.5,307.5 Z"/></g>
</svg>
